<svg xmlns="http://www.w3.org/2000/svg" viewBox="0 0 820 312" width="820" height="312">
  <!-- Background -->
  <rect width="820" height="312" fill="#f8f9fa"/>
  
  <!-- Gradient Background -->
  <rect width="820" height="312" fill="url(#grad1)"/>
  
  <!-- Decorative Elements -->
  <circle cx="100" cy="240" r="25" fill="#ffb347" opacity="0.7"/>
  <circle cx="720" cy="80" r="40" fill="#4a6da7" opacity="0.6"/>
  <circle cx="650" cy="260" r="20" fill="#8ac6d1" opacity="0.8"/>
  
  <!-- Building Blocks Decoration -->
  <rect x="30" y="160" width="40" height="40" rx="5" fill="#4a6da7" opacity="0.9"/>
  <rect x="80" y="160" width="40" height="40" rx="5" fill="#ffb347" opacity="0.9"/>
  <rect x="55" y="120" width="40" height="40" rx="5" fill="#8ac6d1" opacity="0.9"/>
  
  <!-- Text Area -->
  <rect x="160" y="70" width="500" height="170" rx="15" fill="white" opacity="0.85"/>
  
  <!-- Main Heading -->
  <text x="410" y="130" font-family="Arial, sans-serif" font-size="36" font-weight="bold" text-anchor="middle" fill="#2c3e50">EarlyPlay</text>
  
  <!-- Tagline -->
  <text x="410" y="180" font-family="Arial, sans-serif" font-size="24" text-anchor="middle" fill="#4a6da7">Playful Learning, Purposeful Growth</text>
  
  <!-- EYFS Framework Reference -->
  <text x="410" y="220" font-family="Arial, sans-serif" font-size="16" text-anchor="middle" fill="#2c3e50">Complete EYFS Framework Coverage</text>
  
  <!-- Decorative Elements on Right -->
  <rect x="700" y="140" width="30" height="30" rx="5" fill="#ffb347" opacity="0.9"/>
  <rect x="740" y="140" width="30" height="30" rx="5" fill="#4a6da7" opacity="0.9"/>
  <rect x="720" y="100" width="30" height="30" rx="5" fill="#8ac6d1" opacity="0.9"/>
  
  <!-- Gradient definition -->
  <defs>
    <linearGradient id="grad1" x1="0%" y1="0%" x2="100%" y2="100%">
      <stop offset="0%" style="stop-color:#4a6da7;stop-opacity:0.3" />
      <stop offset="100%" style="stop-color:#8ac6d1;stop-opacity:0.3" />
    </linearGradient>
  </defs>
</svg>